<svg xmlns="http://www.w3.org/2000/svg" width="146" height="146" viewBox="0 0 146 146">
  <metadata><?xpacket begin="﻿" id="W5M0MpCehiHzreSzNTczkc9d"?>
<x:xmpmeta xmlns:x="adobe:ns:meta/" x:xmptk="Adobe XMP Core 5.6-c140 79.160451, 2017/05/06-01:08:21        ">
   <rdf:RDF xmlns:rdf="http://www.w3.org/1999/02/22-rdf-syntax-ns#">
      <rdf:Description rdf:about=""/>
   </rdf:RDF>
</x:xmpmeta>
                                                                                                    
                                                                                                    
                                                                                                    
                                                                                                    
                                                                                                    
                                                                                                    
                                                                                                    
                                                                                                    
                                                                                                    
                                                                                                    
                                                                                                    
                                                                                                    
                                                                                                    
                                                                                                    
                                                                                                    
                                                                                                    
                                                                                                    
                                                                                                    
                                                                                                    
                                                                                                    
                           
<?xpacket end="w"?></metadata>
<defs>
    <style>
      .cls-1 {
        fill: #898989;
      }

      .cls-1, .cls-2 {
        fill-rule: evenodd;
      }

      .cls-2 {
        fill: #161616;
      }
    </style>
  </defs>
  <path class="cls-1" d="M60.817,109.5a6.02,6.02,0,0,0,6.22,6.4,5.329,5.329,0,0,0,3.261-.971v-2.6a4.561,4.561,0,0,1-3.14,1.191c-2.243,0-3.71-1.593-3.71-4.018,0-2.443,1.467-4.041,3.71-4.041a4.584,4.584,0,0,1,3.14,1.214v-2.6a5.353,5.353,0,0,0-3.261-.972A6.02,6.02,0,0,0,60.817,109.5Zm-2.977-1.252H56.163l-1.879,2.2h3.557v-2.2h0Zm-12.515,1.051a2.664,2.664,0,0,0,1.652-2.624c0-2.225-1.61-3.373-4.221-3.373H37.964v12.4h5.2c2.609,0,4.2-1.23,4.2-3.512A3.02,3.02,0,0,0,45.324,109.294Zm-4.852-3.813h2.12c1.244,0,1.9.443,1.9,1.43s-0.652,1.479-1.9,1.479H40.473v-2.913Zm2.469,8.037H40.471v-3.112h2.469c1.224,0,1.875.587,1.875,1.555,0,0.948-.655,1.552-1.878,1.552Zm40.7-10.218H80.5l-4.567,5.333V103.3H73.323v12.4h2.61v-5.615l4.689,5.615h3.2l-5.382-6.462Zm21.89,0v7.835l-5.526-7.835H97.562v12.4h2.508v-8.262l5.912,8.258h2.06V103.3H105.53Zm-55.5,12.4h8.5v-2.281H52.6V110.64h0v-2.6h0v-2.476h5.931V103.3H50.028v12.4h0Zm43.784-7.45H92.139l-1.879,2.2h3.557v-2.2h0Zm-7.808,7.45h8.5v-2.281H88.575V110.64h0v-2.6h0v-2.476h5.933V103.3h-8.5v12.4h0ZM47.075,130l0.837-2.024-1.954-4.766h0.365l1.752,4.356,1.764-4.356H50.2L47.418,130H47.075Zm5.873-1.8c-1.284,0-2.132-1.028-2.132-2.543s0.848-2.542,2.132-2.542,2.133,1.027,2.133,2.542-0.852,2.543-2.135,2.543h0Zm0-4.776c-1.061,0-1.787.883-1.787,2.236s0.726,2.231,1.787,2.231,1.786-.883,1.786-2.231-0.73-2.235-1.789-2.235h0Zm7.092,4.691H59.706v-0.908a1.967,1.967,0,0,1-1.664.993,1.58,1.58,0,0,1-1.714-1.426,1.556,1.556,0,0,1,0-.3v-3.27h0.336v3.23a1.294,1.294,0,0,0,1.133,1.443,1.356,1.356,0,0,0,.263.007,1.888,1.888,0,0,0,1.641-1.162v-3.516h0.334v4.91h0Zm6.03-5a1.94,1.94,0,0,1,1.3.431v0.363a1.825,1.825,0,0,0-1.3-.486,2.261,2.261,0,0,0,0,4.467,1.824,1.824,0,0,0,1.3-.486v0.366a1.94,1.94,0,0,1-1.3.431,2.56,2.56,0,0,1,0-5.084h0v0Zm5.437,1.492a1.142,1.142,0,0,0-1.1-1.187h0a1.085,1.085,0,0,0-.161,0,2.657,2.657,0,0,0-1.473.445v-0.356a2.8,2.8,0,0,1,1.473-.4,1.437,1.437,0,0,1,1.589,1.258,1.4,1.4,0,0,1,.007.213v3.528H71.5v-0.533a2,2,0,0,1-1.428.609,1.512,1.512,0,1,1,0-2.962,1.985,1.985,0,0,1,1.428.608v-1.229h0Zm0,1.747a1.506,1.506,0,0,0-1.428-.819,1.205,1.205,0,1,0,0,2.345,1.506,1.506,0,0,0,1.428-.82v-0.706h0Zm1.956-3.152H73.8v0.905a2.012,2.012,0,0,1,1.687-.993,1.578,1.578,0,0,1,1.711,1.428,1.558,1.558,0,0,1,0,.3v3.275H76.856v-3.231a1.29,1.29,0,0,0-1.129-1.439,1.328,1.328,0,0,0-.267-0.006,1.912,1.912,0,0,0-1.664,1.162v3.515H73.462v-4.909h0v0Zm8.619,4.911H81.746v-4.6H80.662v-0.308h1.084v-1.238h0.335v1.238h1.194v0.308h-1.2v4.6h0Zm4.41-4.636a1.215,1.215,0,0,0-.379-0.053,1.65,1.65,0,0,0-1.44,1.162v3.529H84.334v-4.911h0.335v0.9a1.6,1.6,0,0,1,1.441-.984,1.212,1.212,0,0,1,.379.052v0.312h0Zm4.689,4.636H90.846v-0.909a1.965,1.965,0,0,1-1.664.993,1.577,1.577,0,0,1-1.712-1.424,1.558,1.558,0,0,1,0-.3v-3.271h0.334v3.231a1.3,1.3,0,0,0,1.132,1.443,1.371,1.371,0,0,0,.264.006,1.89,1.89,0,0,0,1.642-1.161v-3.516h0.334v4.91h0v0Zm1.285-.787a2.266,2.266,0,0,0,1.552.562,1.12,1.12,0,0,0,1.318-1.017,1.023,1.023,0,0,0-.827-0.948l-0.937-.355a1.3,1.3,0,0,1-1.083-1.23,1.344,1.344,0,0,1,1.553-1.225,2.492,2.492,0,0,1,1.439.44v0.4a2.184,2.184,0,0,0-1.439-.53,0.948,0.948,0,1,0-.28,1.86l0.949,0.363a1.294,1.294,0,0,1,.972,1.226,1.453,1.453,0,0,1-1.664,1.326,2.672,2.672,0,0,1-1.552-.461v-0.409h0v-0.006Zm5.36,0.787H97.49v-4.6H96.4v-0.308h1.084v-1.238h0.335v1.238h1.194v0.308H97.823v4.6h0Zm-53.437-6.758H42.455v7.354h1.932v-0.568h-1.3v-4.957h0v-0.647h0v-0.617h1.3v-0.562h0Zm56.883,0H103.2v7.35H101.27v-0.564h1.3v-4.957h0v-0.647h0v-0.617h-1.3v-0.562h0v0Z" transform="translate(0.016 -12.984)"/>
  <path id="Shape_1_copy_2" data-name="Shape 1 copy 2" class="cls-2" d="M10.4,69.3H15.3V88.476H26.1v4.235H10.4V69.3h0ZM28.2,81.006A12.337,12.337,0,1,1,40.683,93.019h-0.15A11.972,11.972,0,0,1,28.206,81.427c0-.141-0.005-0.283,0-0.424Zm19.622,0c0-4.373-2.943-7.708-7.287-7.708s-7.29,3.339-7.29,7.708,2.944,7.708,7.29,7.708,7.292-3.338,7.292-7.71ZM53.532,69.3h5.256l4.1,9.02a48,48,0,0,1,1.858,5.3,47.865,47.865,0,0,1,1.822-5.3l3.994-9.02h4.772L64.891,92.918H64.4Zm25.368,0h15.77v4.234H83.813v7.437h9.566V85.1H83.813v3.374H95.167v4.235H78.905V69.3h0Zm38.756,23.411H111.98l-3.925-5.923a9.413,9.413,0,0,1-1.4.1h-1.677V92.71h-4.906V69.3h6.588c6.659,0,10.652,3.133,10.652,8.848a7.276,7.276,0,0,1-4.586,7.264ZM106.512,82.692c4,0,5.748-1.239,5.748-4.544s-1.822-4.614-5.748-4.614h-1.535v9.158h1.535ZM119.864,88.1l3.994-2.272a5.351,5.351,0,0,0,4.836,2.926c2.033,0,3.33-1,3.33-2.376,0-1.652-1.332-2.237-3.574-3.2l-1.228-.514c-3.544-1.48-5.886-3.339-5.886-7.263,0-3.615,2.8-6.371,7.182-6.371a7.271,7.271,0,0,1,6.974,3.856l-3.819,2.409a3.343,3.343,0,0,0-3.155-2.065,2.123,2.123,0,0,0-2.336,1.878c-0.006.062-.01,0.125-0.011,0.188,0,1.447.911,2.032,3.014,2.927l1.226,0.514c4.169,1.755,6.518,3.545,6.518,7.574,0,4.338-3.469,6.713-8.131,6.713-4.549,0-7.493-2.136-8.929-4.922Z" transform="translate(0.016 -12.984)"/>
  <path id="Shape_1_copy" data-name="Shape 1 copy" class="cls-2" d="M1,42.253H6.257l4.1,9.02a48.164,48.164,0,0,1,1.857,5.3,47.538,47.538,0,0,1,1.822-5.3l3.994-9.02H22.8L12.353,65.87h-0.49Zm25.475,0H31.38V65.664H26.475V42.253Zm17.38,12.532a35.113,35.113,0,0,1-2.839-3.2,40.515,40.515,0,0,1,.35,4.269v9.812H36.78V42.047h0.49L49.289,53.133a33.419,33.419,0,0,1,2.8,3.2s-0.313-2.651-.313-4.269V42.253h4.587V65.87H55.875Zm23.266-8.3h-6.8V42.253h18.5v4.234h-6.8V65.664H67.121V46.487h0Zm21.055-4.44h0.417L99.5,65.662H94.35L93.228,63.01H83.553l-1.121,2.652H77.7ZM91.47,58.985l-1.717-4.063c-0.7-1.653-1.437-4.2-1.437-4.2a41.96,41.96,0,0,1-1.4,4.2L85.2,58.985H91.47Zm8.689-5.027a11.931,11.931,0,0,1,11.88-11.984c0.152,0,.3,0,0.455,0,4.17,0,7.429,1.446,9.673,4.853l-3.857,2.686a6.471,6.471,0,0,0-5.818-3.2c-4.344,0-7.287,3.27-7.287,7.643s2.943,7.746,7.323,7.746c3.648,0,6.027-2,6.587-4.373h-5.948v-4.2h11.142c0.386,7.746-3.752,12.846-11.738,12.846-7.183-.007-12.4-5.1-12.4-12.022Zm28.56-11.705h15.77v4.234H133.63v7.437H143.2v4.131H133.63v3.374h11.353v4.235h-16.26V42.253h-0.005Z" transform="translate(0.016 -12.984)"/>
</svg>
