<svg xmlns="http://www.w3.org/2000/svg" width="146" height="146" viewBox="0 0 146 146">
  <metadata><?xpacket begin="﻿" id="W5M0MpCehiHzreSzNTczkc9d"?>
<x:xmpmeta xmlns:x="adobe:ns:meta/" x:xmptk="Adobe XMP Core 5.6-c140 79.160451, 2017/05/06-01:08:21        ">
   <rdf:RDF xmlns:rdf="http://www.w3.org/1999/02/22-rdf-syntax-ns#">
      <rdf:Description rdf:about=""/>
   </rdf:RDF>
</x:xmpmeta>
                                                                                                    
                                                                                                    
                                                                                                    
                                                                                                    
                                                                                                    
                                                                                                    
                                                                                                    
                                                                                                    
                                                                                                    
                                                                                                    
                                                                                                    
                                                                                                    
                                                                                                    
                                                                                                    
                                                                                                    
                                                                                                    
                                                                                                    
                                                                                                    
                                                                                                    
                                                                                                    
                           
<?xpacket end="w"?></metadata>
<defs>
    <style>
      .cls-1 {
        fill: #898989;
      }

      .cls-1, .cls-2 {
        fill-rule: evenodd;
      }

      .cls-2 {
        fill: #eb3e24;
      }
    </style>
  </defs>
  <path class="cls-1" d="M60.817,84.495a6.021,6.021,0,0,0,6.22,6.4,5.326,5.326,0,0,0,3.261-.972v-2.6a4.561,4.561,0,0,1-3.14,1.192c-2.243,0-3.71-1.593-3.71-4.019,0-2.443,1.467-4.04,3.71-4.04a4.586,4.586,0,0,1,3.14,1.213v-2.6a5.351,5.351,0,0,0-3.261-.972A6.02,6.02,0,0,0,60.817,84.495Zm-2.977-1.251H56.163l-1.879,2.2h3.557v-2.2h0Zm-12.515,1.05a2.664,2.664,0,0,0,1.652-2.624c0-2.225-1.61-3.372-4.221-3.372H37.964V90.7h5.2c2.609,0,4.2-1.23,4.2-3.512A3.021,3.021,0,0,0,45.324,84.294Zm-4.852-3.813h2.12c1.244,0,1.9.444,1.9,1.43s-0.652,1.479-1.9,1.479H40.473V80.477Zm2.469,8.037H40.471V85.406h2.469c1.224,0,1.875.588,1.875,1.555,0,0.949-.655,1.553-1.878,1.553ZM83.644,78.3H80.5l-4.567,5.333V78.3H73.323v12.4h2.61V85.08l4.689,5.614h3.2l-5.382-6.461Zm21.89,0v7.835L100.008,78.3H97.562V90.7h2.508V82.436l5.912,8.258h2.06V78.3H105.53Zm-55.5,12.4h8.5V88.417H52.6V85.64h0v-2.6h0V80.561h5.931V78.3H50.028V90.7h0Zm43.784-7.45H92.139l-1.879,2.2h3.557v-2.2h0ZM86.007,90.7h8.5V88.417H88.575V85.64h0v-2.6h0V80.561h5.933V78.3h-8.5V90.7h0ZM47.075,105l0.837-2.024-1.954-4.766h0.365l1.752,4.356,1.764-4.356H50.2L47.418,105H47.075Zm5.873-1.8c-1.284,0-2.132-1.028-2.132-2.543s0.848-2.542,2.132-2.542,2.133,1.027,2.133,2.542-0.852,2.543-2.135,2.543h0Zm0-4.776c-1.061,0-1.787.883-1.787,2.236s0.726,2.231,1.787,2.231,1.786-.883,1.786-2.231S54,98.431,52.946,98.431h0Zm7.092,4.691H59.706v-0.908a1.967,1.967,0,0,1-1.664.993,1.58,1.58,0,0,1-1.714-1.426,1.556,1.556,0,0,1,0-.3v-3.27h0.336v3.23a1.294,1.294,0,0,0,1.133,1.443,1.356,1.356,0,0,0,.263.007,1.888,1.888,0,0,0,1.641-1.162V98.213h0.334v4.91h0Zm6.03-5a1.941,1.941,0,0,1,1.3.431v0.363a1.825,1.825,0,0,0-1.3-.486,2.261,2.261,0,0,0,0,4.467,1.824,1.824,0,0,0,1.3-.486v0.366a1.94,1.94,0,0,1-1.3.431,2.56,2.56,0,0,1,0-5.084h0v0Zm5.437,1.492a1.142,1.142,0,0,0-1.1-1.187h0a1.128,1.128,0,0,0-.161,0,2.652,2.652,0,0,0-1.473.444V98.519a2.8,2.8,0,0,1,1.473-.4,1.436,1.436,0,0,1,1.589,1.258,1.389,1.389,0,0,1,.007.212v3.528H71.5v-0.533a2,2,0,0,1-1.428.609,1.512,1.512,0,1,1,0-2.962,1.985,1.985,0,0,1,1.428.608V99.614h0Zm0,1.747a1.506,1.506,0,0,0-1.428-.819,1.205,1.205,0,1,0,0,2.345,1.506,1.506,0,0,0,1.428-.82v-0.706h0Zm1.956-3.152H73.8v0.9a2.014,2.014,0,0,1,1.687-.993,1.578,1.578,0,0,1,1.711,1.428,1.561,1.561,0,0,1,0,.3v3.275H76.856V99.889a1.29,1.29,0,0,0-1.129-1.439,1.35,1.35,0,0,0-.267-0.006A1.912,1.912,0,0,0,73.8,99.606v3.515H73.462V98.212h0v0Zm8.619,4.911H81.746v-4.6H80.662V98.209h1.084V96.971h0.335v1.238h1.194v0.308h-1.2v4.6h0Zm4.41-4.636a1.233,1.233,0,0,0-.379-0.053,1.652,1.652,0,0,0-1.44,1.162v3.529H84.334V98.211h0.335v0.9a1.6,1.6,0,0,1,1.441-.985,1.19,1.19,0,0,1,.379.053v0.312h0Zm4.689,4.636H90.846v-0.909a1.965,1.965,0,0,1-1.664.993,1.577,1.577,0,0,1-1.712-1.424,1.558,1.558,0,0,1,0-.3V98.209h0.334v3.231a1.3,1.3,0,0,0,1.132,1.443,1.371,1.371,0,0,0,.264.006,1.89,1.89,0,0,0,1.642-1.161V98.212h0.334v4.91h0v0Zm1.285-.787a2.266,2.266,0,0,0,1.552.562,1.12,1.12,0,0,0,1.318-1.017,1.023,1.023,0,0,0-.827-0.948l-0.937-.355a1.3,1.3,0,0,1-1.083-1.23A1.344,1.344,0,0,1,94.04,98.12a2.492,2.492,0,0,1,1.439.44v0.4a2.186,2.186,0,0,0-1.439-.53,0.948,0.948,0,1,0-.28,1.86l0.949,0.363a1.294,1.294,0,0,1,.972,1.226,1.453,1.453,0,0,1-1.664,1.326,2.672,2.672,0,0,1-1.552-.461v-0.409h0v-0.006Zm5.36,0.787H97.49v-4.6H96.4V98.209h1.084V96.971h0.335v1.238h1.194v0.308H97.823v4.6h0ZM44.387,96.362H42.455v7.354h1.932v-0.568h-1.3V98.191h0V97.544h0V96.927h1.3V96.365h0Zm56.883,0H103.2v7.35H101.27v-0.564h1.3V98.191h0V97.544h0V96.927h-1.3V96.365h0v0Z" transform="translate(0 -0.5)"/>
  <path class="cls-2" d="M9.688,69.042C9.688,73.305,7.551,75,3.456,75a7.773,7.773,0,0,1-1.888-.181A1.762,1.762,0,0,1,0,72.864V72.683a1.571,1.571,0,0,1,1.388-1.767c1.6-.292,1.922-0.734,1.922-2.28V52.155c0-1.878.856-2.761,2.564-2.761H6.836c2.03,0,2.849,1.144,2.849,3.9V69.042h0ZM6.519,48.218a3.115,3.115,0,1,1,0-6.217,3.115,3.115,0,1,1,0,6.217M25.285,66.5a10.141,10.141,0,0,1-6.516,2.576c-3.1,0-5.484-1.325-5.484-5.554V52.12a2.474,2.474,0,0,1,2.634-2.726h1.14a2.475,2.475,0,0,1,2.635,2.726v9.9c0,1.692.712,2.2,2.422,2.2a9.489,9.489,0,0,0,2.92-.623V52.12a2.458,2.458,0,0,1,2.635-2.726h1.1a2.458,2.458,0,0,1,2.635,2.726V65.989c0,1.874-.856,2.793-2.529,2.793h-1.1c-1.318,0-2.136-.624-2.492-2.28m13-18.283a3.115,3.115,0,1,1,0-6.217,3.115,3.115,0,1,1,0,6.217M41.45,66.024a2.483,2.483,0,0,1-2.636,2.757h-1.1a2.5,2.5,0,0,1-2.635-2.757V52.155c0-1.878.856-2.761,2.564-2.761H38.6c1.995,0,2.849,1.144,2.849,3.9V66.024h0Zm12.571,3.053c-6.267,0-9.971-3.53-9.971-9.932,0-6.292,4.239-10.043,10.361-10.043a12.182,12.182,0,0,1,4.06.588,2.642,2.642,0,0,1,2.065,2.761v0.442c0,1.4-.712,2.059-1.709,2.059-1.21,0-1.958-1.18-4.13-1.18-2.457,0-4.166,1.767-4.166,5.448s1.567,5.3,4.025,5.3c2.386,0,3.1-1.325,4.239-1.325,1.175,0,1.71.773,1.71,2.024v0.331a2.9,2.9,0,0,1-2.065,2.868,12.221,12.221,0,0,1-4.416.662M66.413,48.218a3.115,3.115,0,1,1,3.312-3.088,3.111,3.111,0,0,1-3.312,3.088m3.168,17.806a2.483,2.483,0,0,1-2.636,2.757h-1.1a2.5,2.5,0,0,1-2.635-2.757V52.155c0-1.878.856-2.761,2.564-2.761h0.961c1.995,0,2.849,1.144,2.849,3.9V66.024h0Zm9.971-11.218V66.024a2.5,2.5,0,0,1-2.636,2.757H75.777a2.5,2.5,0,0,1-2.635-2.757V52.155c0-1.878.89-2.761,2.564-2.761h1c1.318,0,2.244.517,2.635,2.43A10.478,10.478,0,0,1,86.176,49.1c2.813,0,5.093,1.175,5.093,5.479V66.024a2.5,2.5,0,0,1-2.636,2.757H87.527a2.508,2.508,0,0,1-2.67-2.757V56.313c0-1.693-.677-2.134-2.208-2.134a9.573,9.573,0,0,0-3.1.627m20.583,5.735c0.319,3.274,1.815,4.122,4.415,4.122,3.063,0,3.811-1.4,5.127-1.4a1.646,1.646,0,0,1,1.71,1.913v0.292a2.642,2.642,0,0,1-1.744,2.54,13.828,13.828,0,0,1-6.09,1.065c-6.517,0-9.864-3.751-9.864-9.857,0-6.217,3.917-10.118,9.543-10.118,6.055,0,8.832,3.645,8.832,8.978a2.253,2.253,0,0,1-2.528,2.466h-9.4Zm0.035-3.456h5.841c-0.106-2.982-1.033-3.937-2.74-3.937-1.5,0-2.74.773-3.1,3.937m20.509,11.956a12.768,12.768,0,0,1-4.737-.7,2.726,2.726,0,0,1-2.1-2.757V65.291a1.814,1.814,0,0,1,1.779-2.1c1.284,0,1.995,1.4,4.808,1.4,1.71,0,2.814-.4,2.814-1.4,0-1.03-.677-1.361-3.277-1.728-3.988-.517-6.16-1.989-6.16-6,0-4.228,3.168-6.327,7.87-6.327a13.314,13.314,0,0,1,4.45.592,2.44,2.44,0,0,1,2.03,2.461v0.517a1.688,1.688,0,0,1-1.674,1.949c-1.281,0-2.242-1.14-4.593-1.14-1.816,0-2.492.477-2.492,1.4,0,0.813.783,1.215,3.168,1.511,4.38,0.552,6.481,1.913,6.481,6.031s-2.635,6.583-8.368,6.583m16.95,0a12.869,12.869,0,0,1-4.737-.7,2.73,2.73,0,0,1-2.1-2.757v-0.3a1.817,1.817,0,0,1,1.78-2.1c1.284,0,1.994,1.4,4.807,1.4,1.709,0,2.814-.407,2.814-1.4,0-1.025-.677-1.356-3.276-1.727-3.989-.513-6.162-1.984-6.162-6,0-4.228,3.169-6.327,7.871-6.327a13.456,13.456,0,0,1,4.453.588,2.444,2.444,0,0,1,2.029,2.465v0.517a1.687,1.687,0,0,1-1.673,1.949c-1.284,0-2.243-1.14-4.594-1.14-1.816,0-2.492.477-2.492,1.4,0,0.808.783,1.215,3.168,1.507C143.9,56.971,146,58.332,146,62.454s-2.635,6.583-8.369,6.583" transform="translate(0 -0.5)"/>
</svg>
