<svg xmlns="http://www.w3.org/2000/svg" width="146" height="146" viewBox="0 0 146 146">
  <metadata><?xpacket begin="﻿" id="W5M0MpCehiHzreSzNTczkc9d"?>
<x:xmpmeta xmlns:x="adobe:ns:meta/" x:xmptk="Adobe XMP Core 5.6-c140 79.160451, 2017/05/06-01:08:21        ">
   <rdf:RDF xmlns:rdf="http://www.w3.org/1999/02/22-rdf-syntax-ns#">
      <rdf:Description rdf:about=""/>
   </rdf:RDF>
</x:xmpmeta>
                                                                                                    
                                                                                                    
                                                                                                    
                                                                                                    
                                                                                                    
                                                                                                    
                                                                                                    
                                                                                                    
                                                                                                    
                                                                                                    
                                                                                                    
                                                                                                    
                                                                                                    
                                                                                                    
                                                                                                    
                                                                                                    
                                                                                                    
                                                                                                    
                                                                                                    
                                                                                                    
                           
<?xpacket end="w"?></metadata>
<defs>
    <style>
      .cls-1 {
        fill: #41e4c0;
      }

      .cls-1, .cls-2 {
        fill-rule: evenodd;
      }

      .cls-2 {
        fill: #081e3c;
      }
    </style>
  </defs>
  <path class="cls-1" d="M77.33,40.434V29H0V40.434M77.33,118V106.565H0V118M23.018,46.486H0.8l27.2,27.284L0.8,101.053H23.017l27.2-27.284Z" transform="translate(0 -0.5)"/>
  <path class="cls-2" d="M53.8,94.989l2.278-3.213a8.629,8.629,0,0,0,6.273,2.678c2.308,0,3.432-1.071,3.432-2.2,0-3.51-11.361-1.1-11.361-8.568,0-3.3,2.84-6.039,7.486-6.039A10.943,10.943,0,0,1,69.6,80.411l-2.337,3.094a8.454,8.454,0,0,0-5.74-2.172c-1.805,0-2.813.805-2.813,1.993,0,3.154,11.332,1.041,11.332,8.449,0,3.629-2.572,6.367-7.9,6.367A11.212,11.212,0,0,1,53.8,94.989M72.884,77.942h4.2V97.786h-4.2V77.942h0Zm7.16,9.937c0-6.278,4.735-10.264,10.5-10.264a9.218,9.218,0,0,1,8.166,4.433l-3.492,1.9a5.582,5.582,0,0,0-4.675-2.588,6.524,6.524,0,0,0,0,13.031,6.632,6.632,0,0,0,4.2-1.518V90.5h-5.2V86.808h9.408v7.616a10.924,10.924,0,0,1-8.4,3.749c-5.77,0-10.5-4.046-10.5-10.293m39.413,9.908V83.892L113.9,97.787h-1.834L106.5,83.892V97.787h-4.2V77.942h5.888l4.793,11.99,4.794-11.99h5.917V97.786h-4.231Zm21.748,0-1.213-3.362h-8.46l-1.243,3.362h-4.8l7.635-19.844H138.4L146,97.786h-4.794Zm-5.443-15.621L132.687,90.7h6.153ZM53.8,59.725c0-6.109,4.386-10.281,9.869-10.281a8.789,8.789,0,0,1,6.875,3.129l-0.74.656a7.875,7.875,0,0,0-6.135-2.891c-4.949,0-8.831,3.785-8.831,9.387,0,5.543,3.881,9.386,8.831,9.386A7.879,7.879,0,0,0,69.8,66.221l0.77,0.625a8.764,8.764,0,0,1-6.905,3.159c-5.483,0-9.869-4.171-9.869-10.28m20.447,9.922V49.772H75.2V68.753h9.928v0.894H74.248Zm13.9-7.539V49.772h0.948V62.108c0,4.411,2.253,7,6.4,7s6.4-2.592,6.4-7V49.772h0.949V62.108c0,4.917-2.548,7.9-7.35,7.9s-7.349-3.01-7.349-7.9m19.913,7.539V49.772H115.5c3.171,0,5.393,1.788,5.393,5.066a4.569,4.569,0,0,1-3.5,4.559,5.058,5.058,0,0,1,3.882,4.887c0,3.4-2.193,5.363-5.659,5.363h-7.558Zm11.8-14.81a4,4,0,0,0-4.357-4.172h-6.49V58.98h6.49c2.905,0,4.357-1.848,4.357-4.142m0.385,9.476a4.326,4.326,0,0,0-4.622-4.439h-6.61v8.879h6.609c2.905,0,4.622-1.728,4.622-4.439m5.6,5.334V49.772h12.092v0.894H126.785v8.314H137.72v0.894H126.785v8.879h11.143v0.895H125.836Z" transform="translate(0 -0.5)"/>
</svg>
