<svg id="logo" xmlns="http://www.w3.org/2000/svg" width="146" height="146" viewBox="0 0 146 146">
  <metadata><?xpacket begin="﻿" id="W5M0MpCehiHzreSzNTczkc9d"?>
<x:xmpmeta xmlns:x="adobe:ns:meta/" x:xmptk="Adobe XMP Core 5.6-c138 79.159824, 2016/09/14-01:09:01        ">
   <rdf:RDF xmlns:rdf="http://www.w3.org/1999/02/22-rdf-syntax-ns#">
      <rdf:Description rdf:about=""/>
   </rdf:RDF>
</x:xmpmeta>
                                                                                                    
                                                                                                    
                                                                                                    
                                                                                                    
                                                                                                    
                                                                                                    
                                                                                                    
                                                                                                    
                                                                                                    
                                                                                                    
                                                                                                    
                                                                                                    
                                                                                                    
                                                                                                    
                                                                                                    
                                                                                                    
                                                                                                    
                                                                                                    
                                                                                                    
                                                                                                    
                           
<?xpacket end="w"?></metadata>
<defs>
    <style>
      .cls-1 {
        fill: #181818;
      }

      .cls-1, .cls-2, .cls-3, .cls-4 {
        fill-rule: evenodd;
      }

      .cls-2 {
        fill: #00854c;
      }

      .cls-3 {
        fill: #fd0;
      }

      .cls-4 {
        fill: #e30613;
      }
    </style>
  </defs>
  <path class="cls-1" d="M26.922,105.92c-0.724.5-1.838,1.935-1.973,1.937-0.244,0-.5-2.4-0.6-2.855a1.083,1.083,0,1,0-2.109.466s0.21,1.121,1.027,4.161a12.66,12.66,0,0,1,.112,1.686c-0.018.482-.217,2.978-0.207,3.487,0.023,1.26.363,2.084,1.4,2.039a1.058,1.058,0,0,0,1.175-1.041c0.021-.375.012-0.776,0.034-1.152a13.47,13.47,0,0,1,.239-3.166,8.062,8.062,0,0,1,.623-1.565,4.379,4.379,0,0,1,.843-1.382,2.488,2.488,0,0,1,1.126-.8,1.448,1.448,0,0,0,.774-0.711,1.173,1.173,0,0,0,.011-0.858C28.971,105.213,27.566,105.48,26.922,105.92Zm5.063-4.485a2.031,2.031,0,0,0,.7-0.28,1.584,1.584,0,0,0,.532-0.653,0.968,0.968,0,0,0,.012-0.777,1.535,1.535,0,0,0-.556-0.686,1.672,1.672,0,0,0-.3-0.156,1.578,1.578,0,0,0-.517-0.071,1.317,1.317,0,0,0-.46.035,1.226,1.226,0,0,0-.723.548,1.566,1.566,0,0,0-.256.915,1.119,1.119,0,0,0,.34.718,1.181,1.181,0,0,0,.576.365A1.762,1.762,0,0,0,31.985,101.435Zm1.911,9.532c-0.04-.7-0.106-1.392-0.2-2.034-0.065-.668-0.362-2.082-1.048-2.366a1.433,1.433,0,0,0-.817-0.064,1.034,1.034,0,0,0-.641.439c-0.29.461,0.005,1.821,0.07,2.41,0.093,0.589.131,1.231,0.171,1.845,0.037,0.642.05,1.286,0.061,1.9s-0.007,1.1,0,1.528a1.237,1.237,0,0,0,1.274,1.343,1.118,1.118,0,0,0,1.2-1.2c0.018-.51.008-1.072,0-1.743S33.936,111.663,33.9,110.967Zm10.869,1.3a7.377,7.377,0,0,1-4.474,1.717c-2.66.046-2.909-3.111-2.316-4.862,0.31-.945,1.223-2.916,2.932-2.947a1.646,1.646,0,0,1,1.56.668c0.56,0.9,1.018.867,1.371,0.7a1.094,1.094,0,0,0,.4-1.613,3.883,3.883,0,0,0-3.535-1.787,5.767,5.767,0,0,0-5.034,3.816,8.4,8.4,0,0,0-.087,5.627c0.685,1.865,2.334,2.853,4.749,2.808a8.267,8.267,0,0,0,5.525-2.135,1.386,1.386,0,0,0,.485-1.723A1,1,0,0,0,44.765,112.264Zm7.379-7.625a3.743,3.743,0,0,0-1.946.49c-1.824,1.183-2.549,4.545-2.643,5.272-0.381,2.872.991,5.259,3.379,5.215,3.366-.06,4.852-3.434,4.776-6.112C55.692,108.647,54.913,104.588,52.144,104.639Zm0.625,7.3c-0.45.625-1.3,1.5-2.122,1.217-1.256-.408-0.752-2.425-0.579-3.34,0.149-.752.861-3.471,2.205-2.665a2.825,2.825,0,0,1,1.034,1.616A3.58,3.58,0,0,1,52.768,111.942Zm7.1,0.649c-0.005-.294-0.238-4.068-0.293-7.068-0.047-2.571.084-7.262,0.1-7.584a5.025,5.025,0,0,1,.366-2.177,1.615,1.615,0,0,0,.174-0.914,1.177,1.177,0,0,0-1.293-.941,2.209,2.209,0,0,0-1.535,2.115c-0.144,1.1-.1,2.226-0.129,3.326-0.007,1.071-.07,2.117-0.077,3.189,0.011,3.563.1,7.125,0.359,10.684a8.657,8.657,0,0,0,.16,1.444,1.754,1.754,0,0,0,1.444,1.609,1.151,1.151,0,0,0,1.228-.987,1.259,1.259,0,0,0-.206-0.907A4.824,4.824,0,0,1,59.865,112.591Zm12.368,2.324c-0.124-.8-0.96-6.44-1.057-7.243a1.043,1.043,0,0,0-1.774-.5c-0.585.574-.587,1.994-2.474,4.251-0.424.489-1.73,1.826-2.5,1.249-0.634-.5-0.477-2.349.659-3.976a6.813,6.813,0,0,1,2.945-2.3,1.164,1.164,0,0,0,.65-1.539c-0.42-.767-1.259-0.54-1.986-0.259a7.447,7.447,0,0,0-4.322,4.1c-1.91,3.866.285,6.64,2.7,6.6,2.171-.04,3.768-3.2,3.875-3.365,0.052-.083.157-0.273,0.424,0.848,0.117,0.588.3,1.521,0.536,2.669a1.131,1.131,0,0,0,1.322,1.023A1.215,1.215,0,0,0,72.233,114.915Zm5.271-3.041a34.311,34.311,0,0,1-.427-4.012,7.259,7.259,0,0,1,.17-1.075,1.155,1.155,0,0,0-1.3-1.236,1.726,1.726,0,0,0-.991.741,3,3,0,0,0-.318,1.881c0.129,1.043,1.389,10.585,1.168,11.875-0.2,1-1.211,2-2.168,1.621a2.029,2.029,0,0,1-1.045-.76,1.253,1.253,0,0,0-1.284-.351,1.075,1.075,0,0,0-.709,1.3c0.077,1.257,1.56,2.2,3.46,2.161,3.337-.06,4.408-2.33,4.09-6.4C77.972,115.187,77.72,113.343,77.5,111.874Zm-2.606-10.3a1.732,1.732,0,0,0,.6.285,1.682,1.682,0,0,0,.732-0.013,1.55,1.55,0,0,0,.753-0.389,0.916,0.916,0,0,0,.314-0.73,1.656,1.656,0,0,0-.92-1.376,1.1,1.1,0,0,0-.573-0.1,1.468,1.468,0,0,0-.756.229,1.622,1.622,0,0,0-.585.759,1.043,1.043,0,0,0,.043.8A1.078,1.078,0,0,0,74.9,101.577Zm11.6,11.287c-0.269.059-.542,0.118-0.784,0.173a2.44,2.44,0,0,1-2.963-1.659c0.048-.3,1.525-1.154,2.78-2.355,1.173-1.119,2.766-3.023,2-4.779A2.754,2.754,0,0,0,85.71,102.7a4.428,4.428,0,0,0-3.54.843c-1.208.824-2.83,2.7-2.352,6.553,0.446,3.554,2.41,5.529,4.853,5.483,0.678-.012,2.52-0.178,2.941-0.99a0.961,0.961,0,0,0,.149-0.752A1.122,1.122,0,0,0,86.494,112.864Zm-3.526-7.2c0.718-.845,1.5-1.153,1.915-0.731,0.441,0.42-.164,1.395-0.669,1.965a15.2,15.2,0,0,1-2.058,1.86A4.21,4.21,0,0,1,82.967,105.668Zm23.533-9.1a2.948,2.948,0,0,0-3.362-2.754,4.474,4.474,0,0,0-4.429,4.259,30.658,30.658,0,0,0,.086,6.133c-0.321.168-1.346,0.561-1.751,0.754a1.257,1.257,0,0,0-.54,1.563,1.182,1.182,0,0,0,1.53.563l0.944-.364s0.044,0.937.047,1.071c0.079,1.338.234,2.38,0.391,3.529,0.185,1.229.37,2.459,0.529,3.688a1.267,1.267,0,0,0,1.377,1.128,1.145,1.145,0,0,0,1.116-1.333c-0.174-2.088-.535-4.009-0.709-6.1a27.006,27.006,0,0,1-.25-3.265c2.4-1.168,2.744-1.362,2.744-1.362a1.036,1.036,0,0,0,.461-1.508,1.245,1.245,0,0,0-1.663-.345c-0.323.085-1.453,0.642-1.778,0.781a18.906,18.906,0,0,1-.014-5.3c0.227-.968,1.293-1.953,2.225-1.514a3.079,3.079,0,0,1,1.027,1.241,1.206,1.206,0,0,0,1.256.379A1.061,1.061,0,0,0,106.5,96.566Zm4.03,5.124c1.068-1.01,2.355-1.864,3.394-2.926a1.062,1.062,0,0,0-1.466-1.529,33.486,33.486,0,0,0-3.315,2.819A1.074,1.074,0,1,0,110.53,101.69Zm4.791,5.192a1.041,1.041,0,0,0-1.773-.5c-0.587.573-.589,1.992-2.474,4.251-0.425.489-1.73,1.825-2.5,1.249-0.633-.5-0.476-2.35.659-3.977a6.813,6.813,0,0,1,2.944-2.3,1.166,1.166,0,0,0,.652-1.538c-0.423-.771-1.259-0.54-1.987-0.26a7.436,7.436,0,0,0-4.322,4.1c-1.912,3.865.284,6.639,2.7,6.595,2.17-.038,3.768-3.2,3.874-3.364,0.053-.082.158-0.271,0.423,0.85,0.119,0.586.3,1.522,0.536,2.67a1.131,1.131,0,0,0,1.321,1.021,1.216,1.216,0,0,0,1-1.546C116.255,113.323,115.419,107.684,115.321,106.882Zm12.041,3.723a7.364,7.364,0,0,1-4.475,1.714c-2.66.048-2.907-3.109-2.316-4.862,0.308-.942,1.223-2.914,2.933-2.945a1.645,1.645,0,0,1,1.56.669c0.559,0.9,1.019.865,1.37,0.7a1.1,1.1,0,0,0,.4-1.615,3.88,3.88,0,0,0-3.535-1.787,5.759,5.759,0,0,0-5.032,3.816,8.4,8.4,0,0,0-.087,5.627c0.685,1.863,2.332,2.853,4.748,2.81a8.283,8.283,0,0,0,5.525-2.136,1.386,1.386,0,0,0,.484-1.724A1,1,0,0,0,127.362,110.605Zm5.308-1.406c-0.04-.7-0.108-1.393-0.2-2.035-0.066-.667-0.364-2.083-1.049-2.365a1.416,1.416,0,0,0-.814-0.065,1.046,1.046,0,0,0-.644.44c-0.29.46,0.006,1.822,0.071,2.409,0.094,0.589.131,1.23,0.17,1.846,0.04,0.644.049,1.285,0.063,1.9s-0.008,1.1,0,1.528a1.234,1.234,0,0,0,1.272,1.343,1.121,1.121,0,0,0,1.2-1.2c0.018-.509.008-1.072-0.006-1.74S132.71,109.893,132.67,109.2Zm-1.912-9.532a2.044,2.044,0,0,0,.7-0.281,1.579,1.579,0,0,0,.531-0.653A0.968,0.968,0,0,0,132,97.957a1.54,1.54,0,0,0-.556-0.687,1.678,1.678,0,0,0-.3-0.154,1.584,1.584,0,0,0-.519-0.072,1.391,1.391,0,0,0-.46.035,1.236,1.236,0,0,0-.722.55,1.56,1.56,0,0,0-.255.915,1.114,1.114,0,0,0,.34.717,1.189,1.189,0,0,0,.577.364A1.787,1.787,0,0,0,130.758,99.667ZM137.477,113a4.845,4.845,0,0,1-.3-1.789c-0.006-.3-0.238-4.069-0.293-7.07-0.047-2.57.084-7.261,0.106-7.584a4.985,4.985,0,0,1,.367-2.174,1.651,1.651,0,0,0,.174-0.917,1.181,1.181,0,0,0-1.295-.941A2.215,2.215,0,0,0,134.7,94.64c-0.143,1.1-.1,2.226-0.129,3.325-0.007,1.071-.069,2.118-0.077,3.189,0.011,3.563.1,7.124,0.358,10.684a8.521,8.521,0,0,0,.164,1.443,1.754,1.754,0,0,0,1.44,1.61,1.151,1.151,0,0,0,1.231-.987A1.261,1.261,0,0,0,137.477,113ZM17.613,108.413c-0.13,0-.112-0.02-0.072-0.039,1-.484,3.07-2.616,3.057-4.726A4.948,4.948,0,0,0,19,100.379,9.549,9.549,0,0,0,17.122,99a14.068,14.068,0,0,0-2.171-1,15.752,15.752,0,0,0-2.016-.576H12.847a1.006,1.006,0,0,0-.394-0.445,1.109,1.109,0,0,0-.533-0.177,0.923,0.923,0,0,0-.529.09,0.945,0.945,0,0,0-.435.379,1.212,1.212,0,0,0-.88.2,1.011,1.011,0,0,0-.372.563,0.835,0.835,0,0,0,.159.69,1.394,1.394,0,0,0,.775.464,0.064,0.064,0,0,1,.059.026h0.029c-0.048.612-.124,1.2-0.2,1.812a41.644,41.644,0,0,0-.173,5.081c0.091,4.89.413,11.043,0.514,11.758a1.285,1.285,0,0,0,1.373,1.267,0.874,0.874,0,0,0,.868-0.893c-0.037-.424-0.231-6.356-0.3-6.917-0.046-.375.007-0.551,0.163-0.588,1.892-.483,2.938-0.84,4.1-0.59,2.027,0.431,2.355,3.582-1.935,5.728a0.938,0.938,0,0,0,.238,1.838c3.984-.659,7.25-5.841,4.731-8.132A4.445,4.445,0,0,0,17.613,108.413ZM12.6,108.39l0-.292c-0.019-1.01-.065-1.994-0.055-2.977-0.017-.985.024-1.968,0.065-2.953,0.021-.452.071-0.9,0.123-1.358,0.051-.425.1-0.88,0.152-1.332q0.8,0.227,1.781.607a9.09,9.09,0,0,1,1.785.924,6.554,6.554,0,0,1,1.379,1.252,2.217,2.217,0,0,1,.529,1.506A2.611,2.611,0,0,1,18,104.944C16.659,107.688,12.6,108.39,12.6,108.39Z" transform="translate(0 0.484)"/>
  <path class="cls-2" d="M116.241,31.5l-0.188-.175a4.275,4.275,0,0,0-.7-0.458,9.244,9.244,0,0,0-4.737-1.476,8.986,8.986,0,0,0-5.938,2.442,7.639,7.639,0,0,0-1.176,1.507l-3.1-2.329-0.223-.16-0.028-.023c-0.029-.021-0.056-0.041-0.086-0.061l-0.245-.181H99.791a7.966,7.966,0,0,0-11.042,2.16l0.046-.058L81.581,40.87l-9.269-9.224L72.133,31.5a8.425,8.425,0,0,0-11.667.195,8.749,8.749,0,0,0-2.439,6.489s0.011,2.682.021,6.544L42.572,31.709l-0.515-.432s-0.046-.01-0.111-0.026a9.995,9.995,0,0,0-5.723-1.987,8.874,8.874,0,0,0-8.753,5.107S11.879,70.077,11.877,70.078c-2.43,5.575.959,9.424,3.835,10.654l-0.1-.044a7.674,7.674,0,0,0,1.554.517,7.308,7.308,0,0,0,1.651.229H136.36V48.385Z" transform="translate(0 0.484)"/>
  <path class="cls-3" d="M109.841,32.143a5.923,5.923,0,0,0-5.858,6.4V72.218a5.882,5.882,0,1,0,11.718,0V38.548A5.924,5.924,0,0,0,109.841,32.143Zm-24.2,23L98.612,40.714c3.492-4.62-.573-7.626-0.573-7.626a5.537,5.537,0,0,0-7.882,1.4L72.067,54.923,90.645,76.357a5.4,5.4,0,0,0,7.791,1.075s4.041-3.347.292-7.764ZM42.036,35.6c-1.521-4.291-9.88-5.255-12.216.014L14.4,70.83a5.275,5.275,0,0,0,2.526,7.36s4.733,2.264,7.046-3.025l2.322-4.821H44.859l2.125,4.776c2.435,5.239,7.554,3.065,7.554,3.065s4.467-2.172,2.03-7.413ZM30.961,59.619L35.63,48.465l4.559,11.154H30.961ZM66.19,32.006a5.922,5.922,0,0,0-5.857,6.406l0.022,33.777a5.883,5.883,0,1,0,11.719,0c0-2.711-.025-31.339-0.025-33.777A5.924,5.924,0,0,0,66.19,32.006Z" transform="translate(0 0.484)"/>
  <path class="cls-2" d="M7.03,24.883a4.524,4.524,0,0,0-4.5,4.536V81.277a4.524,4.524,0,0,0,4.5,4.536H138.973a4.525,4.525,0,0,0,4.5-4.536V29.418a4.525,4.525,0,0,0-4.5-4.536H7.03ZM138.973,88.32H7.03A7.046,7.046,0,0,1,0,81.277V29.418A7.046,7.046,0,0,1,7.03,22.375H138.973A7.046,7.046,0,0,1,146,29.418V81.277a7.046,7.046,0,0,1-7.031,7.043" transform="translate(0 0.484)"/>
  <path class="cls-4" d="M107.429,35.033a63.107,63.107,0,0,1,14.413-14.041,6.891,6.891,0,0,1,1.628,2.07l-0.09.142a10.172,10.172,0,0,1,.65,1.056,7.979,7.979,0,0,0-1.2,1.122s0.748,1.154.951,1.524l-0.817,1.111s1.937-1.524,2.076-1.623a0.168,0.168,0,0,1,.238.04,14.633,14.633,0,0,1,1.437,1.935s-7.984,6.433-11.4,11.87l-1.809-1.732,0.36-.577-1.034-1.194a20.239,20.239,0,0,0-1.446,2.119l-1.613-1.587s0.629-1.01.9-1.4-0.931.55-1.245,1.031Z" transform="translate(0 0.484)"/>
</svg>
