<svg xmlns="http://www.w3.org/2000/svg" width="146" height="146" viewBox="0 0 146 146">
  <metadata><?xpacket begin="﻿" id="W5M0MpCehiHzreSzNTczkc9d"?>
<x:xmpmeta xmlns:x="adobe:ns:meta/" x:xmptk="Adobe XMP Core 5.6-c140 79.160451, 2017/05/06-01:08:21        ">
   <rdf:RDF xmlns:rdf="http://www.w3.org/1999/02/22-rdf-syntax-ns#">
      <rdf:Description rdf:about=""/>
   </rdf:RDF>
</x:xmpmeta>
                                                                                                    
                                                                                                    
                                                                                                    
                                                                                                    
                                                                                                    
                                                                                                    
                                                                                                    
                                                                                                    
                                                                                                    
                                                                                                    
                                                                                                    
                                                                                                    
                                                                                                    
                                                                                                    
                                                                                                    
                                                                                                    
                                                                                                    
                                                                                                    
                                                                                                    
                                                                                                    
                           
<?xpacket end="w"?></metadata>
<defs>
    <style>
      .cls-1 {
        fill: #081e3c;
        fill-rule: evenodd;
      }
    </style>
  </defs>
  <path class="cls-1" d="M69.923,16V76.912H58.3V16H69.923Zm16.83,0V76.912H75.129V16H86.752ZM15.419,128.74L15,120.871h0.34c0.946,3.7,3.9,7.908,6.628,8.773V130A26.788,26.788,0,0,1,15.419,128.74ZM23.288,130v-0.394a3.683,3.683,0,0,0,3.141-4.013c0-2.55-2.006-3.7-5.488-5.743-3.066-1.731-5.676-3.935-5.676-7.831,0-4.878,4.352-7.161,8.211-7.437v0.355c-1.589.237-2.611,1.337-2.611,3.541,0,2.873,2.46,4.012,5.411,5.784,2.915,1.731,5.9,3.345,5.9,7.634C32.183,127.087,28.362,129.725,23.288,130Zm7.418-17.941c-1.055-3.266-2.877-6.415-5.943-7.122v-0.355a26.489,26.489,0,0,1,5.98.945l0.3,6.532H30.706Zm6.282-2.284c0-3.265-.832-4.21-2.989-4.564V104.9H46.788v0.314c-1.967.354-2.99,1.1-2.99,4.564v15.031c0,3.422,1.023,4.21,2.99,4.564v0.315H34V129.37c2.157-.354,2.989-1.338,2.989-4.564V109.775h0Zm21.536,19.91h-9.8V129.37c2.157-.354,2.99-1.338,2.99-4.564V109.775c0-3.265-.833-4.21-2.99-4.564V104.9H61.968v0.314c-2.195.354-3.444,1.1-3.444,4.564v19.91Zm12.11-10-0.648,10H60.261V129.37a12.1,12.1,0,0,0,5.678-2.6,13.342,13.342,0,0,0,4.389-7.083h0.306Zm14.343,2.519-2.989,7.634H80.511l-7.682-19.95c-1.249-3.188-2.575-4.447-4.5-4.682V104.9H82.137v0.314c-1.4.119-2.5,0.629-2.5,2.124a10.019,10.019,0,0,0,.9,3.227ZM94.665,104.9v0.316a6.254,6.254,0,0,0-3.671,2.084,15.46,15.46,0,0,0-2.535,4.722l-0.3-.15a22.3,22.3,0,0,0,.53-3.58,2.874,2.874,0,0,0-2.67-3.066,3.039,3.039,0,0,0-.357,0v-0.315h9.007Zm2.082,4.88c0-3.265-.833-4.211-2.99-4.564V104.9h12.79v0.316c-1.967.353-2.989,1.1-2.989,4.564v15.03c0,3.424,1.022,4.211,2.989,4.564v0.316H93.757V129.37c2.158-.354,2.99-1.338,2.99-4.564V109.777Zm21.531,15.03c0,3.424,1.438,4.211,3.633,4.564v0.316H108.477V129.37c2.158-.354,2.99-1.338,2.99-4.564V109.775c0-3.265-.832-4.21-2.99-4.564V104.9h9.8v19.909h0Zm1.7-5.55V118.9a4,4,0,0,0,1.742-.709c1.2-.865,2.232-2.556,2.232-6.373,0-3.9-.6-5.666-2.687-6.334a7.739,7.739,0,0,0-1.287-.275v-0.315c0.834,0,2.082.04,2.915,0.12,5.752,0.551,8.1,2.636,8.1,6.73,0,3.58-3.483,7.238-11.013,7.514h0Z"/>
</svg>
