<svg xmlns="http://www.w3.org/2000/svg" width="146" height="146" viewBox="0 0 146 146">
  <metadata><?xpacket begin="﻿" id="W5M0MpCehiHzreSzNTczkc9d"?>
<x:xmpmeta xmlns:x="adobe:ns:meta/" x:xmptk="Adobe XMP Core 5.6-c138 79.159824, 2016/09/14-01:09:01        ">
   <rdf:RDF xmlns:rdf="http://www.w3.org/1999/02/22-rdf-syntax-ns#">
      <rdf:Description rdf:about=""/>
   </rdf:RDF>
</x:xmpmeta>
                                                                                                    
                                                                                                    
                                                                                                    
                                                                                                    
                                                                                                    
                                                                                                    
                                                                                                    
                                                                                                    
                                                                                                    
                                                                                                    
                                                                                                    
                                                                                                    
                                                                                                    
                                                                                                    
                                                                                                    
                                                                                                    
                                                                                                    
                                                                                                    
                                                                                                    
                                                                                                    
                           
<?xpacket end="w"?></metadata>
<defs>
    <style>
      .cls-1 {
        fill: #262e5e;
      }

      .cls-1, .cls-2, .cls-3 {
        fill-rule: evenodd;
      }

      .cls-2 {
        fill: #2783c5;
      }

      .cls-3 {
        fill: #83ccdd;
      }
    </style>
  </defs>
  <path class="cls-1" d="M12.886,70.363l-4.954,29.8H13.4l2.795-16.818a3.261,3.261,0,0,1,3.083-2.658H34.231l0.914-5.5H20.189a8.671,8.671,0,0,0-2.716.449l0.877-5.272A3.259,3.259,0,0,1,21.433,67.7h20.33l0.914-5.5H22.347A10,10,0,0,0,12.886,70.363ZM46.992,92l4.953-29.8H46.481L41.527,92a6.719,6.719,0,0,0,6.749,8.161h20.33l0.915-5.5H49.192a2.185,2.185,0,0,1-2.248-2.121A2.211,2.211,0,0,1,46.992,92h0ZM76.827,70.363L73.231,92a6.717,6.717,0,0,0,6.749,8.161h20.33l0.913-5.5H80.893a2.185,2.185,0,0,1-2.248-2.121A2.211,2.211,0,0,1,78.694,92l1.437-8.657a3.262,3.262,0,0,1,3.083-2.658H98.171l0.913-5.5H84.128a8.688,8.688,0,0,0-2.715.449l0.878-5.272A3.26,3.26,0,0,1,85.376,67.7H105.7l0.913-5.5H86.289A10,10,0,0,0,76.827,70.363Zm47.52,10.731L117.811,62.2h-6.149l7.443,21.51,0.068,0.165-0.279.275-6.109,7.081h0l-7.722,8.928h6.677L122.67,87.514a6.5,6.5,0,0,0,1.979-3.627A5,5,0,0,0,124.347,81.094Zm6.578-2.61,0.277-.277,6.112-7.077h0L145,62.2h-6.677l-10.9,12.645a6.505,6.505,0,0,0-1.979,3.63,5.023,5.023,0,0,0,.3,2.795l6.547,18.89h6.149L130.99,78.65Z"/>
  <path id="Shape_1_copy_2" data-name="Shape 1 copy 2" class="cls-2" d="M11.551,111.926L11.2,110.752H9.408l-0.356,1.174H7.932l1.731-4.957h1.271l1.738,4.957H11.551Zm-0.6-2.053c-0.33-1.064-.514-1.669-0.555-1.807s-0.072-.252-0.09-0.331q-0.111.431-.634,2.139h1.279Zm5.728-1.344a1.516,1.516,0,0,1-.494,1.22,2.108,2.108,0,0,1-1.406.419H14.328v1.758h-1.04V106.99h1.566a2.065,2.065,0,0,1,1.357.387,1.41,1.41,0,0,1,.464,1.152h0Zm-2.347.783h0.344a1.131,1.131,0,0,0,.719-0.191,0.666,0.666,0,0,0,.238-0.555,0.693,0.693,0,0,0-.2-0.544,0.937,0.937,0,0,0-.625-0.175H14.328v1.465h0Zm6.659-.783a1.516,1.516,0,0,1-.493,1.22,2.115,2.115,0,0,1-1.408.419H18.641v1.758H17.6V106.99h1.567a2.067,2.067,0,0,1,1.356.387,1.41,1.41,0,0,1,.464,1.152h0Zm-2.347.783h0.342a1.132,1.132,0,0,0,.719-0.191,0.667,0.667,0,0,0,.238-0.555,0.7,0.7,0,0,0-.2-0.544,0.937,0.937,0,0,0-.625-0.175H18.643v1.465h0Zm3.274,2.614V106.99h1.04v4.072h1.989v0.865H21.915Zm3.881,0V106.99h1.039v4.936H25.8Zm4.356-4.138a1.063,1.063,0,0,0-.911.447,2.077,2.077,0,0,0-.321,1.238q0,1.647,1.232,1.648a3.91,3.91,0,0,0,1.25-.259v0.876a3.406,3.406,0,0,1-1.348.257,2.054,2.054,0,0,1-1.636-.655,2.777,2.777,0,0,1-.567-1.874,3.084,3.084,0,0,1,.278-1.352,2.017,2.017,0,0,1,.8-0.888,2.338,2.338,0,0,1,1.223-.309,3.339,3.339,0,0,1,1.434.346l-0.335.851c-0.184-.087-0.368-0.162-0.553-0.229a1.694,1.694,0,0,0-.546-0.1h0Zm5.3,4.138-0.356-1.174H33.3l-0.355,1.174h-1.12l1.732-4.957h1.271l1.739,4.957H35.447Zm-0.6-2.053c-0.33-1.064-.515-1.669-0.556-1.807s-0.072-.252-0.089-0.331q-0.112.431-.634,2.139h1.279Zm4.23,2.053H38.036v-4.065H36.7v-0.872h3.7v0.872H39.075v4.065h0Zm2.087,0V106.99H42.2v4.936h-1.04Zm6.725-2.477a2.7,2.7,0,0,1-.6,1.887,2.6,2.6,0,0,1-3.461,0,2.706,2.706,0,0,1-.6-1.893,2.666,2.666,0,0,1,.605-1.881,2.26,2.26,0,0,1,1.736-.649,2.228,2.228,0,0,1,1.728.654,2.693,2.693,0,0,1,.6,1.881h0Zm-3.579,0a2.056,2.056,0,0,0,.313,1.246,1.084,1.084,0,0,0,.932.421c0.829,0,1.244-.554,1.244-1.667s-0.414-1.668-1.239-1.668a1.1,1.1,0,0,0-.937.421,2.075,2.075,0,0,0-.313,1.246h0Zm8.944,2.477H51.932L49.8,108.19H49.768c0.042,0.661.062,1.132,0.062,1.41v2.327H48.9V106.99h1.31l2.13,3.7h0.024q-0.05-.961-0.05-1.36V106.99h0.935v4.937h0Zm7.087-2.518a2.456,2.456,0,0,1-.69,1.871,2.8,2.8,0,0,1-1.991.647H56.271V106.99H57.81a2.576,2.576,0,0,1,1.865.639,2.351,2.351,0,0,1,.665,1.779h0Zm-1.081.03a1.326,1.326,0,0,0-1.4-1.591H57.311v3.214h0.445a1.384,1.384,0,0,0,1.5-1.623h0Zm4.92,2.488H61.355V106.99h2.823v0.858H62.4v1.083h1.66v0.859H62.4v1.272h1.784v0.865h0ZM68,106.99h1.05l-1.667,4.936H66.247l-1.663-4.936h1.049l0.923,2.936c0.052,0.175.1,0.376,0.159,0.607s0.09,0.391.1,0.481a8.89,8.89,0,0,1,.252-1.088Zm4.491,4.936H69.667V106.99H72.49v0.858H70.706v1.083h1.66v0.859h-1.66v1.272H72.49v0.865h0Zm1.023,0V106.99h1.04v4.072h1.99v0.865h-3.03Zm8.33-2.477a2.7,2.7,0,0,1-.6,1.887,2.6,2.6,0,0,1-3.46,0,2.7,2.7,0,0,1-.6-1.893,2.665,2.665,0,0,1,.6-1.881,2.262,2.262,0,0,1,1.736-.649,2.227,2.227,0,0,1,1.728.654,2.694,2.694,0,0,1,.6,1.881h0Zm-3.579,0a2.056,2.056,0,0,0,.313,1.246,1.084,1.084,0,0,0,.932.421c0.829,0,1.246-.554,1.246-1.667s-0.413-1.668-1.239-1.668a1.1,1.1,0,0,0-.937.421,2.071,2.071,0,0,0-.314,1.246h0Zm7.984-.92a1.517,1.517,0,0,1-.5,1.22,2.111,2.111,0,0,1-1.409.419H83.9v1.758H82.859V106.99h1.566a2.071,2.071,0,0,1,1.359.387,1.419,1.419,0,0,1,.464,1.152h0Zm-2.35.783h0.346a1.123,1.123,0,0,0,.716-0.191,0.675,0.675,0,0,0,.239-0.555,0.7,0.7,0,0,0-.2-0.544,0.933,0.933,0,0,0-.627-0.175H83.9v1.465h0Zm5.349,2.614-1.18-3.872H88.041c0.043,0.786.063,1.311,0.063,1.577v2.3h-0.93v-4.937h1.416l1.162,3.777h0.018L91,106.989h1.413v4.937H91.446v-2.337c0-.11,0-0.238,0-0.382s0.019-.527.048-1.149H91.465l-1.26,3.868H89.246Zm7.226,0H93.649V106.99h2.823v0.858H94.691v1.083h1.656v0.859H94.691v1.272h1.781v0.865h0Zm5.371,0h-1.316l-2.135-3.735H98.363c0.043,0.66.063,1.132,0.063,1.409v2.327H97.5V106.99h1.312l2.13,3.7h0.025q-0.051-.961-0.052-1.36V106.99h0.934v4.937h0Zm3.13,0h-1.041v-4.065H102.6v-0.872h3.7v0.872h-1.327v4.065h0Zm7.257-3.4a1.515,1.515,0,0,1-.5,1.22,2.106,2.106,0,0,1-1.4.419h-0.449v1.758h-1.042v-4.936h1.567a2.076,2.076,0,0,1,1.361.387,1.422,1.422,0,0,1,.463,1.151h0Zm-2.35.783h0.344a1.128,1.128,0,0,0,.719-0.192,0.671,0.671,0,0,0,.238-0.554,0.689,0.689,0,0,0-.2-0.544,0.927,0.927,0,0,0-.625-0.175h-0.473v1.465h0Zm3.271,2.614V106.99h1.042v4.073h1.991v0.865h-3.033Zm6.887,0-0.359-1.174h-1.787l-0.356,1.174h-1.119l1.73-4.957h1.271l1.736,4.957h-1.116Zm-0.607-2.053c-0.329-1.064-.511-1.669-0.554-1.807s-0.071-.252-0.091-0.331q-0.106.43-.63,2.139h1.275Zm4.235,2.053h-1.041v-4.066h-1.332v-0.872h3.7v0.872h-1.327v4.065h0Zm3.345,0h-1.022V106.99H128.8v0.859h-1.791v1.271h1.667v0.855h-1.667v1.953h0Zm7.2-2.477a2.7,2.7,0,0,1-.6,1.887,2.6,2.6,0,0,1-3.461,0,2.712,2.712,0,0,1-.6-1.893,2.657,2.657,0,0,1,.6-1.881,2.258,2.258,0,0,1,1.735-.649,2.222,2.222,0,0,1,1.727.654,2.683,2.683,0,0,1,.6,1.88v0Zm-3.576,0a2.085,2.085,0,0,0,.31,1.246,1.09,1.09,0,0,0,.937.421c0.825,0,1.241-.554,1.241-1.667s-0.411-1.668-1.236-1.668a1.1,1.1,0,0,0-.938.421,2.083,2.083,0,0,0-.314,1.245v0Zm5.635,0.582v1.9h-1.041V106.99h1.427a2.435,2.435,0,0,1,1.48.367,1.47,1.47,0,0,1,.239,1.887,1.565,1.565,0,0,1-.673.531q1.108,1.666,1.441,2.151h-1.15l-1.171-1.895h-0.552Zm0-.849H136.6a1.259,1.259,0,0,0,.725-0.167,0.6,0.6,0,0,0,.239-0.52,0.537,0.537,0,0,0-.243-0.5,1.441,1.441,0,0,0-.741-0.149h-0.313v1.335h0Zm5.566,2.744-1.179-3.872h-0.029c0.044,0.786.063,1.311,0.063,1.576v2.3h-0.932V106.99h1.418l1.162,3.776h0.018l1.232-3.776H145v4.937h-0.969V109.59c0-.11,0-0.238,0-0.382s0.018-.527.048-1.149H144.05l-1.262,3.868h-0.955ZM41.133,34.014h-10.7a2.684,2.684,0,0,0-2.675,2.693L25.186,52.138h0a2.7,2.7,0,0,0,1.858,3.322,2.659,2.659,0,0,0,.718.1H41.132A10.773,10.773,0,0,0,41.133,34.014Zm0,16.159H32.474a1.342,1.342,0,0,1-1.337-1.346h0V48.661l0.7-4.175,0.646-3.864-0.006.124A1.342,1.342,0,0,1,33.811,39.4h7.322A5.386,5.386,0,0,1,41.133,50.172ZM9.951,43.242C9.2,41.835,7.466,39.8,3.636,39.572a2.693,2.693,0,0,0,0,5.386c3.054,0.557,4.425,3.88,5.008,6.118Zm8.155-.789-0.7-3.9-1.425,8.525L16.681,51Zm7.329-3.9L24.01,47.082,25.168,53.6l0.006-.044a2.676,2.676,0,0,1,.008-1.415h0l1.075-6.449,0.2-1.415Zm33.78,2.1c0,0.039-.006.077-0.006,0.117ZM77.187,43a5.4,5.4,0,0,0-.445-7.591,5.324,5.324,0,0,0-3.547-1.358H57.174a2.681,2.681,0,0,0-2.671,2.69L51.934,52.147l0,0a2.69,2.69,0,0,0,1.848,3.315,2.653,2.653,0,0,0,.723.1H70.527A8.08,8.08,0,0,0,77.182,43Zm-5.448-.337H65.376l-0.423.452H71.01a1.429,1.429,0,0,1,.531.091,2.781,2.781,0,0,1,.6.373A3.57,3.57,0,0,1,73.2,46.149a4.02,4.02,0,0,1-4,4.034H59.21a1.34,1.34,0,0,1-1.335-1.344V48.673l0.7-4.167,0.643-3.858v0.009a1.341,1.341,0,0,1,1.33-1.229h11.04A1.621,1.621,0,0,1,71.739,42.661Z"/>
  <path id="Shape_1_copy" data-name="Shape 1 copy" class="cls-3" d="M14.368,52.865l2.59-15.5h0a2.676,2.676,0,1,0-5.268-.664L9.12,52.137h0A2.677,2.677,0,1,0,14.368,52.865Zm8.024,0,2.59-15.5h0a2.676,2.676,0,1,0-5.268-.664L17.145,52.137h0A2.676,2.676,0,1,0,22.393,52.865Z"/>
</svg>
