<svg xmlns="http://www.w3.org/2000/svg" width="146" height="146" viewBox="0 0 146 146">
  <metadata><?xpacket begin="﻿" id="W5M0MpCehiHzreSzNTczkc9d"?>
<x:xmpmeta xmlns:x="adobe:ns:meta/" x:xmptk="Adobe XMP Core 5.6-c140 79.160451, 2017/05/06-01:08:21        ">
   <rdf:RDF xmlns:rdf="http://www.w3.org/1999/02/22-rdf-syntax-ns#">
      <rdf:Description rdf:about=""/>
   </rdf:RDF>
</x:xmpmeta>
                                                                                                    
                                                                                                    
                                                                                                    
                                                                                                    
                                                                                                    
                                                                                                    
                                                                                                    
                                                                                                    
                                                                                                    
                                                                                                    
                                                                                                    
                                                                                                    
                                                                                                    
                                                                                                    
                                                                                                    
                                                                                                    
                                                                                                    
                                                                                                    
                                                                                                    
                                                                                                    
                           
<?xpacket end="w"?></metadata>
<defs>
    <style>
      .cls-1 {
        fill-rule: evenodd;
      }
    </style>
  </defs>
  <path class="cls-1" d="M107.982,90.058v2.218h2.479v0.365h-2.479v2.793h2.544V95.8H107.59V89.694h2.936v0.365h-2.544Zm3.887-.365H112.3l1.809,3.094,1.811-3.094h0.432l-2.046,3.5V95.8h-0.392V93.189Zm6.227,0.365v2.218h2.479v0.365H118.1v2.793h2.544V95.8H117.71V89.694h2.935v0.365H118.1Zm6,4.882,2.3-5.554,2.3,5.554,1.7-5.251h0.392L128.717,96l-2.349-5.643L124.028,96l-2.055-6.307h0.389Zm8.448-4.882v2.218h2.48v0.365h-2.48v2.793h2.545V95.8H132.15V89.694h2.936v0.365h-2.545Zm5.132,3.732L136.85,95.8h-0.4l2.577-6.307L141.6,95.8h-0.4l-0.824-2.008h-2.7Zm1.355-3.312-1.2,2.947h2.405ZM146,95.8h-0.448l-2.008-2.891h-0.2V95.8h-0.391v-6.1h0.766a6.3,6.3,0,0,1,.734.041,1.381,1.381,0,0,1,.669.267,1.33,1.33,0,0,1,.474.578,1.923,1.923,0,0,1,.143.733,1.753,1.753,0,0,1-.131.7,1.343,1.343,0,0,1-.367.5,1.625,1.625,0,0,1-.56.3,2.2,2.2,0,0,1-.7.094Zm-2.152-3.256a3.843,3.843,0,0,0,.562-0.04,1,1,0,0,0,.515-0.243,1.093,1.093,0,0,0,.325-0.433,1.384,1.384,0,0,0-.053-1.178A0.978,0.978,0,0,0,144.7,90.2a1.4,1.4,0,0,0-.539-0.126c-0.2-.008-0.379-0.012-0.563-0.012H143.35v2.485h0.5ZM59.056,58.472l9.12,20.915,9.153-20.915,5.093,26.334H79.561L76.333,67.955H76.267L68.178,84.807,60.124,67.955h-0.07L56.825,84.807H53.963ZM97.2,58.5a13.119,13.119,0,0,1,5.167,1.026,13.347,13.347,0,0,1,4.236,2.826,13.508,13.508,0,0,1,2.865,4.189,12.917,12.917,0,0,1-2.865,14.382,13.48,13.48,0,0,1-18.807,0,13.093,13.093,0,0,1-2.863-4.155,12.962,12.962,0,0,1,0-10.226A13.5,13.5,0,0,1,87.8,62.35a13.35,13.35,0,0,1,4.236-2.826A13.119,13.119,0,0,1,97.2,58.5Zm0,2.625A10.387,10.387,0,0,0,89.763,64.2a10.636,10.636,0,0,0-2.219,3.347,10.313,10.313,0,0,0-.814,4.071,10.189,10.189,0,0,0,.814,4.053,10.6,10.6,0,0,0,5.574,5.6,10.336,10.336,0,0,0,8.167,0,10.6,10.6,0,0,0,5.575-5.6,10.193,10.193,0,0,0,.813-4.053,10.335,10.335,0,0,0-.813-4.071,10.673,10.673,0,0,0-2.22-3.347A10.388,10.388,0,0,0,97.2,61.123Zm27.628,2.763a6.659,6.659,0,0,0-1.779-2.035,4.378,4.378,0,0,0-2.626-.724,4.555,4.555,0,0,0-1.609.281,4.346,4.346,0,0,0-1.355.807,3.7,3.7,0,0,0-1.271,2.845,2.638,2.638,0,0,0,.389,1.431,4.451,4.451,0,0,0,.966,1.093,6.165,6.165,0,0,0,1.288.806l1.355,0.64,1.694,0.74a24.274,24.274,0,0,1,2.355,1.16,9.47,9.47,0,0,1,1.948,1.446,6.17,6.17,0,0,1,1.338,1.916,6.307,6.307,0,0,1,.492,2.607,7.675,7.675,0,0,1-.626,3.112,7.544,7.544,0,0,1-1.729,2.471,8.346,8.346,0,0,1-2.557,1.649,8.043,8.043,0,0,1-3.116.605,8.432,8.432,0,0,1-2.847-.468,7.633,7.633,0,0,1-4.1-3.4,8.8,8.8,0,0,1-1.017-2.691l2.779-.774a5.778,5.778,0,0,0,1.677,3.334,4.941,4.941,0,0,0,1.541,1.01,4.847,4.847,0,0,0,1.894.369,5.365,5.365,0,0,0,1.966-.369,5.443,5.443,0,0,0,1.678-1.026,5.053,5.053,0,0,0,1.17-1.573,4.5,4.5,0,0,0,.441-1.984,4,4,0,0,0-.408-1.885A4.562,4.562,0,0,0,123.7,73.94a7.123,7.123,0,0,0-1.508-.993q-0.846-.42-1.727-0.824l-1.559-.672q-1.117-.5-2.135-1.076a8.587,8.587,0,0,1-1.779-1.313,5.494,5.494,0,0,1-1.2-1.733,5.8,5.8,0,0,1-.442-2.372,6,6,0,0,1,2.152-4.709,7.267,7.267,0,0,1,2.288-1.294,8.058,8.058,0,0,1,2.709-.456,7.3,7.3,0,0,1,6.607,3.938Zm17.686,0a6.649,6.649,0,0,0-1.778-2.035,4.378,4.378,0,0,0-2.626-.724,4.571,4.571,0,0,0-1.61.281,4.352,4.352,0,0,0-1.354.807,3.707,3.707,0,0,0-1.27,2.845,2.629,2.629,0,0,0,.389,1.431,4.447,4.447,0,0,0,.965,1.093,6.243,6.243,0,0,0,1.288.806l1.356,0.64,1.693,0.74a24.274,24.274,0,0,1,2.355,1.16,9.45,9.45,0,0,1,1.949,1.446,6.215,6.215,0,0,1,1.338,1.916A6.324,6.324,0,0,1,145.7,76.9a7.658,7.658,0,0,1-.626,3.112,7.544,7.544,0,0,1-1.729,2.471,8.33,8.33,0,0,1-2.556,1.649,8.043,8.043,0,0,1-3.116.605,8.419,8.419,0,0,1-2.841-.468,7.691,7.691,0,0,1-2.355-1.33,7.775,7.775,0,0,1-1.745-2.068,8.776,8.776,0,0,1-1.017-2.691l2.779-.774a5.749,5.749,0,0,0,1.677,3.33,4.919,4.919,0,0,0,1.541,1.01,4.85,4.85,0,0,0,1.893.37,5.484,5.484,0,0,0,3.643-1.4,5.047,5.047,0,0,0,1.17-1.564,4.484,4.484,0,0,0,.44-1.984,4.006,4.006,0,0,0-.407-1.885,4.589,4.589,0,0,0-1.067-1.344,7.171,7.171,0,0,0-1.508-.993q-0.846-.42-1.728-0.825l-1.558-.672q-1.118-.5-2.135-1.076a8.543,8.543,0,0,1-1.779-1.313,5.5,5.5,0,0,1-1.2-1.733,5.845,5.845,0,0,1-.44-2.372,5.99,5.99,0,0,1,2.152-4.709,7.277,7.277,0,0,1,2.286-1.294,8.08,8.08,0,0,1,2.707-.46,7.3,7.3,0,0,1,6.607,3.938ZM22.651,51A21.467,21.467,0,0,0,14.217,92.28l2.362-5.541a15.43,15.43,0,0,1-1.932-27.53l6.41,15.04a1.594,1.594,0,0,0,.308.442,1.776,1.776,0,0,0,2.494.073c0.025-.023.05-0.048,0.075-0.073a2.221,2.221,0,0,0,.307-0.443l6.413-15.04a15.407,15.407,0,0,1,5.342,21.263,15.6,15.6,0,0,1-7.274,6.266l2.367,5.542a21.422,21.422,0,0,0,11.478-28.2A21.719,21.719,0,0,0,22.651,51Z" transform="translate(-0.5 -0.5)"/>
</svg>
