<svg xmlns="http://www.w3.org/2000/svg" width="146" height="145.312" viewBox="0 0 146 145.312">
  <metadata><?xpacket begin="﻿" id="W5M0MpCehiHzreSzNTczkc9d"?>
<x:xmpmeta xmlns:x="adobe:ns:meta/" x:xmptk="Adobe XMP Core 5.6-c138 79.159824, 2016/09/14-01:09:01        ">
   <rdf:RDF xmlns:rdf="http://www.w3.org/1999/02/22-rdf-syntax-ns#">
      <rdf:Description rdf:about=""/>
   </rdf:RDF>
</x:xmpmeta>
                                                                                                    
                                                                                                    
                                                                                                    
                                                                                                    
                                                                                                    
                                                                                                    
                                                                                                    
                                                                                                    
                                                                                                    
                                                                                                    
                                                                                                    
                                                                                                    
                                                                                                    
                                                                                                    
                                                                                                    
                                                                                                    
                                                                                                    
                                                                                                    
                                                                                                    
                                                                                                    
                           
<?xpacket end="w"?></metadata>
<defs>
    <style>
      .cls-1 {
        fill: #5f5f5f;
        fill-rule: evenodd;
      }
    </style>
  </defs>
  <path class="cls-1" d="M133.924,11.976v0l-21.306-11.6V0.344l-0.049.007-0.012-.007-0.005.009-2.906.409L81.484,4.723l-2.237.315,0,2.261-0.129,69.84A21.318,21.318,0,0,1,74.136,90.6a20.159,20.159,0,0,1-6.9,5.448l-0.322-2.308L45.559,81.859l-2.581.363L14.652,86.206l-2.329.328,0.089,2.352c0.511,13.457,5.678,25.466,14.547,33.817a41.42,41.42,0,0,0,11.054,7.487l-0.03.055,17.228,9.38q1.69,1.029,3.471,1.89l0.667,0.363,0.022-.04q1.082,0.5,2.194.937A42.4,42.4,0,0,0,77.1,145.656a47.193,47.193,0,0,0,6.549-.464c13.372-1.881,25.953-9.274,35.426-20.817a64.036,64.036,0,0,0,14.732-40.3l0.128-69.1,0.006-3Zm-21.31-8.628V3.341L129.6,12.584l-17.006,2.392Zm-2.6,0-0.022,12-7.154,1.006L85.277,6.822Zm-28.293,73.8,0.128-69.22,18.717,10.157,0,0.849-0.129,69.84a21.321,21.321,0,0,1-4.978,13.463,18.832,18.832,0,0,1-11.741,6.909,15.569,15.569,0,0,1-2.175.155,13.808,13.808,0,0,1-9.206-3.417,15.3,15.3,0,0,1-4.534-7.23A24.022,24.022,0,0,0,81.717,77.144ZM43.34,84.8l1.906-.266,17.513,9.532L36,97.833,18.438,88.305Zm-14.6,36c-8.272-7.788-13.077-18.848-13.7-31.376L33.694,99.548l0.037,0.968a49.7,49.7,0,0,0,10.3,29.182A38.587,38.587,0,0,1,28.744,120.805ZM131.2,84.07a61.42,61.42,0,0,1-14.14,38.651c-9.057,11.037-21.053,18.1-33.777,19.89a44.343,44.343,0,0,1-6.187.439A39.5,39.5,0,0,1,59.877,139.2l-3.348-1.823a39.251,39.251,0,0,1-6.467-4.94c-8.414-7.921-13.244-19.225-13.73-32.018l28.326-3.984a18.387,18.387,0,0,0,5.963,11.411A16.431,16.431,0,0,0,81.537,111.9a18.234,18.234,0,0,0,2.538-.18c10.434-1.468,18.94-11.762,18.961-22.948l0.129-69.84,28.163-3.962Z" transform="translate(-0.125 -0.344)"/>
</svg>
