<svg xmlns="http://www.w3.org/2000/svg" width="146" height="146" viewBox="0 0 146 146">
  <metadata><?xpacket begin="﻿" id="W5M0MpCehiHzreSzNTczkc9d"?>
<x:xmpmeta xmlns:x="adobe:ns:meta/" x:xmptk="Adobe XMP Core 5.6-c138 79.159824, 2016/09/14-01:09:01        ">
   <rdf:RDF xmlns:rdf="http://www.w3.org/1999/02/22-rdf-syntax-ns#">
      <rdf:Description rdf:about=""/>
   </rdf:RDF>
</x:xmpmeta>
                                                                                                    
                                                                                                    
                                                                                                    
                                                                                                    
                                                                                                    
                                                                                                    
                                                                                                    
                                                                                                    
                                                                                                    
                                                                                                    
                                                                                                    
                                                                                                    
                                                                                                    
                                                                                                    
                                                                                                    
                                                                                                    
                                                                                                    
                                                                                                    
                                                                                                    
                                                                                                    
                           
<?xpacket end="w"?></metadata>
<defs>
    <style>
      .cls-1 {
        fill: #313131;
        fill-rule: evenodd;
      }
    </style>
  </defs>
  <path class="cls-1" d="M38.407,107.937a7.467,7.467,0,0,0,.8.08c0.3,0.016.573,0.021,0.82,0.021a5.754,5.754,0,0,0,1.087-.1,3.011,3.011,0,0,0,1.056-.386,2.315,2.315,0,0,0,.809-0.811,2.484,2.484,0,0,0,.321-1.346,2.944,2.944,0,0,0-.252-1.3,2.049,2.049,0,0,0-.7-0.839,2.869,2.869,0,0,0-1.077-.425,6.677,6.677,0,0,0-1.389-.126H38.413v5.235Zm1.087-8.009a5.454,5.454,0,0,0,1.142-.114,2.406,2.406,0,0,0,.919-0.4,1.924,1.924,0,0,0,.617-0.783,2.981,2.981,0,0,0,.224-1.246,2.427,2.427,0,0,0-.261-1.195,2.04,2.04,0,0,0-.665-0.735,2.332,2.332,0,0,0-.908-0.347,5.334,5.334,0,0,0-1-.088,7.408,7.408,0,0,0-1.16.076v4.84h1.1Zm-4.65-7.363c0.532-.083,1.13-0.152,1.815-0.2s1.55-.076,2.586-0.076a13.79,13.79,0,0,1,2.558.227,6.337,6.337,0,0,1,2.1.773,3.914,3.914,0,0,1,1.419,1.444A4.5,4.5,0,0,1,45.847,97a4.7,4.7,0,0,1-.234,1.5,4.357,4.357,0,0,1-.63,1.215,3.9,3.9,0,0,1-.887.853,2.371,2.371,0,0,1-1.013.417,5.175,5.175,0,0,1,1.26.361,4.163,4.163,0,0,1,2.256,2.213,4.889,4.889,0,0,1,.4,2.065,5.293,5.293,0,0,1-.607,2.683,4.473,4.473,0,0,1-1.623,1.651,6.792,6.792,0,0,1-2.358.834,16.828,16.828,0,0,1-2.817.228c-0.759,0-1.5-.025-2.241-0.063s-1.575-.127-2.507-0.24V92.565h0Zm22.043,15.372q3.805,0,3.809-6.249a9.5,9.5,0,0,0-.919-4.693,3.114,3.114,0,0,0-2.865-1.561q-3.871,0-3.866,6.249t3.841,6.25m0,3.081a7.812,7.812,0,0,1-3.447-.708,6.4,6.4,0,0,1-2.388-1.954,8.522,8.522,0,0,1-1.391-2.945,14.46,14.46,0,0,1-.456-3.722,14.716,14.716,0,0,1,.456-3.738,8.586,8.586,0,0,1,1.391-2.986,6.368,6.368,0,0,1,2.388-1.968,8.714,8.714,0,0,1,6.885,0,6.362,6.362,0,0,1,2.389,1.968,8.586,8.586,0,0,1,1.391,2.986,14.712,14.712,0,0,1,.456,3.738,14.46,14.46,0,0,1-.456,3.722,8.519,8.519,0,0,1-1.391,2.945,6.4,6.4,0,0,1-2.389,1.954,7.789,7.789,0,0,1-3.438.708m17.857-3.081q3.816,0,3.816-6.25a9.415,9.415,0,0,0-.926-4.693,3.1,3.1,0,0,0-2.865-1.561q-3.864,0-3.865,6.249t3.841,6.249m0,3.082A7.847,7.847,0,0,1,71.3,110.3a6.4,6.4,0,0,1-2.384-1.955,8.508,8.508,0,0,1-1.389-2.944,14.149,14.149,0,0,1-.458-3.722,14.4,14.4,0,0,1,.458-3.739,8.577,8.577,0,0,1,1.389-2.986A6.357,6.357,0,0,1,71.3,92.987a8.729,8.729,0,0,1,6.89,0,6.351,6.351,0,0,1,2.383,1.968,8.588,8.588,0,0,1,1.391,2.986,14.412,14.412,0,0,1,.456,3.739,14.169,14.169,0,0,1-.456,3.722,8.518,8.518,0,0,1-1.391,2.944A6.393,6.393,0,0,1,78.19,110.3a7.862,7.862,0,0,1-3.445.708m14.763-9.432,4.79-8.995a10.158,10.158,0,0,1,1.05-.126c0.321-.013.61-0.025,0.871-0.025s0.593,0.02.937,0.054,0.709,0.067,1.082.1l-4.848,8.748,5.267,9.375c-0.376.031-.747,0.064-1.1,0.1a8.758,8.758,0,0,1-.945.051c-0.278,0-.555-0.013-0.869-0.023a9.319,9.319,0,0,1-1.075-.13ZM85.4,92.55c0.314-.05.617-0.083,0.914-0.1s0.593-.025.908-0.025c0.277,0,.568.013,0.859,0.025a8.09,8.09,0,0,1,.914.1v18.189c-0.316.05-.619,0.083-0.914,0.1s-0.587.024-.887,0.024-0.593-.013-0.887-0.024a7.512,7.512,0,0,1-.914-0.1V92.565Zm18.45,9.748a9.908,9.908,0,0,1-1.5-.722,4.393,4.393,0,0,1-1.13-.93,3.779,3.779,0,0,1-.727-1.3,5.561,5.561,0,0,1-.261-1.816,5.68,5.68,0,0,1,.433-2.271,4.584,4.584,0,0,1,1.217-1.652,5.358,5.358,0,0,1,1.894-1.005,8.453,8.453,0,0,1,2.484-.341,11.542,11.542,0,0,1,2.347.228,18.807,18.807,0,0,1,2.306.659,9.149,9.149,0,0,1-.791,2.872l-0.747-.3a6.524,6.524,0,0,0-.814-0.253c-0.284-.063-0.612-0.117-0.971-0.164a11.833,11.833,0,0,0-1.242-.063,4.833,4.833,0,0,0-.846.076,2.344,2.344,0,0,0-.771.278,1.538,1.538,0,0,0-.568.594,2.052,2.052,0,0,0-.222,1.018,1.874,1.874,0,0,0,.178.85,1.684,1.684,0,0,0,.47.572,2.588,2.588,0,0,0,.66.4c0.248,0.108.5,0.215,0.741,0.316l1.48,0.6c0.622,0.253,1.185.518,1.7,0.784a4.682,4.682,0,0,1,1.29.992,4.317,4.317,0,0,1,.821,1.444,6.332,6.332,0,0,1,.3,2.082,5.8,5.8,0,0,1-.456,2.346,5.122,5.122,0,0,1-1.315,1.82,6.336,6.336,0,0,1-2.129,1.179,9.156,9.156,0,0,1-2.92.433c-0.532,0-1.025-.022-1.451-0.054a11.9,11.9,0,0,1-1.217-.165,11.038,11.038,0,0,1-1.142-.29c-0.376-.121-0.772-0.26-1.178-0.428a10.107,10.107,0,0,1,.271-1.529c0.13-.531.284-1.063,0.463-1.6a12.937,12.937,0,0,0,1.952.646,8.6,8.6,0,0,0,1.951.215,4.352,4.352,0,0,0,2.434-.594,2.013,2.013,0,0,0,.887-1.805,2.2,2.2,0,0,0-.209-1,2.127,2.127,0,0,0-.545-0.682,3.234,3.234,0,0,0-.747-0.471c-0.284-.127-0.567-0.248-0.864-0.361ZM144.8,85.256H1.186a1.215,1.215,0,0,1,0-2.43H144.8a1.226,1.226,0,0,1,0,2.451V85.256ZM18.1,75.3a19.112,19.112,0,0,1-7.373-1.233A10.767,10.767,0,0,1,6.1,70.508a14.35,14.35,0,0,1-2.377-5.645A36.913,36.913,0,0,1,3.032,57.4V34.462C4.1,34.31,5,34.209,5.775,34.152s1.5-.089,2.186-0.089c0.624,0,1.309.038,2.056,0.089s1.655,0.159,2.718.31v21.78a46.707,46.707,0,0,0,.209,4.764,10.529,10.529,0,0,0,.8,3.208,3.623,3.623,0,0,0,1.613,1.765,6.006,6.006,0,0,0,2.741.531,6.19,6.19,0,0,0,2.766-.531,3.644,3.644,0,0,0,1.643-1.765,9.915,9.915,0,0,0,.766-3.208c0.124-1.309.2-2.888,0.2-4.764V34.462c1.093-.152,2.013-0.253,2.767-0.31s1.431-.089,2.049-0.089c0.655,0,1.371.038,2.138,0.089s1.685,0.159,2.741.31V57.419a36.907,36.907,0,0,1-.692,7.464A14.351,14.351,0,0,1,30.1,70.521a10.767,10.767,0,0,1-4.63,3.558A19.081,19.081,0,0,1,18.1,75.312m44.1-5.054a21.849,21.849,0,0,1-.493,4.435H35.3l-0.983-1.518L49.438,43.1H36.016a15.224,15.224,0,0,1-.355-2.3c-0.055-.7-0.085-1.379-0.085-2.018s0.03-1.329.085-2.074a15.227,15.227,0,0,1,.355-2.359H62.7l0.814,1.625L48.5,66.008H61.7a21.205,21.205,0,0,1,.493,4.269m8.052,4.769a28.731,28.731,0,0,1-4.871-.505V34.468c0.986-.152,1.877-0.256,2.686-0.336s1.511-.114,2.129-0.114c0.655,0,1.4.045,2.218,0.114s1.7,0.18,2.661.336V74.541a29.31,29.31,0,0,1-4.822.505m8.662-40.581c0.8-.152,1.531-0.26,2.186-0.336a18.246,18.246,0,0,1,1.921-.114,16.6,16.6,0,0,1,2.049.139c0.71,0.092,1.329.2,1.841,0.31l12.7,22v-22c0.958-.152,1.817-0.26,2.582-0.336s1.463-.114,2.08-0.114,1.285,0.045,1.977.114,1.419,0.181,2.192.336l-0.062,40.073a12.72,12.72,0,0,1-1.6.338,13.537,13.537,0,0,1-2.248.168,13.773,13.773,0,0,1-2.462-.2c-0.735-.126-1.262-0.227-1.6-0.3L87.731,52.65V74.537a21.527,21.527,0,0,1-4.385.505,22.247,22.247,0,0,1-4.435-.505Zm47.495,10.5-3.679,14.426q0.934,0.271,1.76.442a8.117,8.117,0,0,0,1.7.171,11.864,11.864,0,0,0,1.84-.144,15.719,15.719,0,0,0,1.9-.424ZM118.733,74.6c-0.839.152-1.611,0.26-2.3,0.336a18.644,18.644,0,0,1-2.032.114,22.582,22.582,0,0,1-2.272-.139c-0.853-.088-1.815-0.24-2.877-0.424L121.53,34.41c0.944-.114,1.84-0.2,2.661-0.278s1.65-.114,2.484-0.114c0.7,0,1.458.045,2.272,0.114s1.774,0.164,2.823.278l12.107,40.131a34.927,34.927,0,0,1-5.476.505,21.094,21.094,0,0,1-2.193-.114c-0.722-.076-1.506-0.18-2.352-0.336l-2.086-7.805a22.713,22.713,0,0,1-2.927.677,18.072,18.072,0,0,1-2.768.22,18.446,18.446,0,0,1-2.574-.18,26.625,26.625,0,0,1-2.749-.6Z" transform="translate(0 0.484)"/>
</svg>
